<svg 
 xmlns="http://www.w3.org/2000/svg"
 xmlns:xlink="http://www.w3.org/1999/xlink"
 width="51px" height="60px" viewBox="0 0 51 60" > 
<path fill-rule="evenodd"  fill="rgb(255, 255, 255)"
 d="M41.822,23.261 C40.419,29.382 35.759,34.245 29.807,35.856 C29.545,38.979 31.596,41.916 34.681,42.621 C34.685,42.622 34.690,42.624 34.694,42.625 C34.733,42.634 34.771,42.645 34.808,42.657 C34.812,42.659 34.817,42.661 34.822,42.662 C34.859,42.675 34.895,42.689 34.930,42.705 C34.936,42.708 34.941,42.711 34.948,42.714 C34.981,42.730 35.013,42.747 35.045,42.765 C35.051,42.768 35.058,42.773 35.065,42.777 C35.095,42.795 35.124,42.814 35.153,42.834 C35.159,42.839 35.165,42.844 35.172,42.849 C35.200,42.870 35.228,42.892 35.255,42.916 C35.259,42.920 35.263,42.924 35.267,42.928 C35.296,42.953 35.323,42.979 35.349,43.007 C35.350,43.009 35.352,43.011 35.353,43.013 C35.574,43.253 35.711,43.573 35.711,43.928 L35.711,47.946 L39.401,47.946 C40.129,47.946 40.719,48.546 40.719,49.285 L40.719,58.660 C40.719,59.400 40.129,60.000 39.401,60.000 L11.723,60.000 C10.995,60.000 10.405,59.400 10.405,58.660 L10.405,49.285 C10.405,48.546 10.995,47.946 11.723,47.946 L15.413,47.946 L15.413,43.959 C15.413,43.953 15.413,43.946 15.413,43.940 L15.413,43.928 C15.413,43.923 15.414,43.917 15.414,43.911 C15.415,43.874 15.416,43.835 15.420,43.798 C15.421,43.788 15.422,43.779 15.423,43.769 C15.427,43.735 15.432,43.702 15.438,43.668 C15.441,43.655 15.445,43.641 15.448,43.628 C15.454,43.599 15.461,43.571 15.469,43.544 C15.474,43.526 15.480,43.510 15.486,43.494 C15.494,43.470 15.502,43.446 15.511,43.423 C15.518,43.405 15.526,43.387 15.535,43.369 C15.544,43.348 15.554,43.327 15.565,43.306 C15.574,43.289 15.583,43.272 15.593,43.255 C15.605,43.235 15.617,43.214 15.629,43.194 C15.639,43.179 15.650,43.164 15.660,43.149 C15.675,43.129 15.689,43.109 15.705,43.089 C15.715,43.076 15.726,43.064 15.736,43.051 C15.754,43.031 15.771,43.011 15.790,42.991 C15.800,42.981 15.811,42.971 15.821,42.961 C15.842,42.941 15.862,42.922 15.883,42.903 C15.894,42.894 15.905,42.886 15.917,42.877 C15.939,42.859 15.961,42.842 15.984,42.826 C15.997,42.817 16.010,42.808 16.023,42.800 C16.045,42.786 16.068,42.771 16.091,42.758 C16.107,42.749 16.124,42.741 16.142,42.731 C16.162,42.721 16.182,42.711 16.203,42.701 C16.225,42.691 16.248,42.683 16.270,42.675 C16.288,42.668 16.305,42.661 16.323,42.655 C16.350,42.647 16.377,42.640 16.404,42.632 C16.416,42.629 16.428,42.625 16.441,42.622 C19.510,41.919 21.560,39.000 21.317,35.892 C15.301,34.318 10.581,29.426 9.169,23.258 C3.656,20.903 -0.000,15.365 -0.000,9.241 C-0.000,8.501 0.590,7.901 1.318,7.901 L8.734,7.901 L8.734,1.339 C8.734,0.599 9.324,-0.000 10.052,-0.000 L40.940,-0.000 C41.668,-0.000 42.258,0.599 42.258,1.339 L42.258,7.901 L49.682,7.901 C50.410,7.901 51.000,8.501 51.000,9.241 C51.000,15.368 47.341,20.909 41.822,23.261 ZM8.735,19.457 C8.735,19.453 8.734,19.447 8.734,19.442 L8.734,10.580 L2.709,10.580 C3.130,14.537 5.396,18.062 8.748,20.055 C8.741,19.857 8.736,19.658 8.735,19.457 ZM13.041,50.625 L13.041,57.321 L38.083,57.321 L38.083,50.625 L13.041,50.625 ZM18.049,45.268 L18.049,47.946 L33.075,47.946 L33.075,45.268 L18.049,45.268 ZM29.565,42.589 C28.034,40.923 27.136,38.695 27.148,36.345 C26.604,36.400 26.053,36.428 25.496,36.428 C24.984,36.428 24.477,36.404 23.977,36.358 C23.988,38.090 23.510,39.791 22.571,41.282 C22.274,41.753 21.939,42.189 21.571,42.589 L29.565,42.589 ZM39.622,2.678 L11.370,2.678 L11.370,19.396 C11.370,27.310 17.707,33.750 25.496,33.750 C33.285,33.750 39.622,27.310 39.622,19.396 L39.622,19.396 L39.622,2.678 ZM42.258,10.580 L42.258,19.442 C42.258,19.447 42.257,19.452 42.257,19.457 C42.256,19.659 42.251,19.860 42.244,20.060 C45.600,18.067 47.869,14.540 48.291,10.580 L42.258,10.580 ZM30.309,18.864 L30.979,22.829 C31.063,23.331 30.860,23.839 30.454,24.139 C30.225,24.308 29.953,24.395 29.679,24.395 C29.470,24.395 29.259,24.344 29.066,24.241 L25.562,22.369 L22.058,24.241 C21.614,24.478 21.075,24.439 20.670,24.139 C20.264,23.840 20.060,23.331 20.145,22.829 L20.815,18.864 L17.980,16.056 C17.620,15.700 17.491,15.168 17.646,14.683 C17.801,14.198 18.213,13.845 18.710,13.771 L22.628,13.193 L24.380,9.585 C24.602,9.128 25.060,8.839 25.562,8.839 C26.064,8.839 26.522,9.128 26.744,9.585 L28.496,13.193 L32.414,13.771 C32.910,13.845 33.323,14.198 33.478,14.683 C33.633,15.168 33.504,15.700 33.144,16.056 L30.309,18.864 ZM27.431,15.742 C27.002,15.679 26.631,15.405 26.439,15.010 L25.562,13.204 L24.685,15.010 C24.493,15.405 24.122,15.679 23.693,15.742 L21.732,16.032 L23.151,17.437 C23.461,17.745 23.603,18.189 23.530,18.623 L23.195,20.607 L24.949,19.670 C25.140,19.568 25.351,19.516 25.562,19.516 C25.772,19.516 25.983,19.568 26.175,19.670 L27.929,20.607 L27.594,18.623 C27.521,18.189 27.662,17.745 27.973,17.437 L29.392,16.032 L27.431,15.742 ZM29.648,55.312 L21.476,55.312 C20.748,55.312 20.158,54.713 20.158,53.973 C20.158,53.233 20.748,52.634 21.476,52.634 L29.648,52.634 C30.376,52.634 30.966,53.233 30.966,53.973 C30.966,54.713 30.376,55.312 29.648,55.312 Z"/>
</svg>