<svg 
 xmlns="http://www.w3.org/2000/svg"
 xmlns:xlink="http://www.w3.org/1999/xlink"
 width="81px" height="60px" viewBox="0 0 81 60" > 
<path fill-rule="evenodd"  fill="rgb(255, 255, 255)"
 d="M78.381,59.580 C77.202,59.580 76.258,58.636 76.258,57.456 L76.258,51.922 C76.258,51.364 76.022,50.871 75.615,50.528 C70.769,46.538 65.536,43.900 64.528,43.406 C63.671,42.977 63.134,42.141 63.134,41.175 L63.134,33.389 C63.134,32.681 63.478,32.016 64.078,31.630 C64.507,31.351 64.764,30.879 64.764,30.365 L64.764,22.278 C64.764,19.447 62.470,17.130 59.618,17.130 L57.881,17.130 C55.029,17.130 52.713,19.447 52.713,22.299 L52.713,30.386 C52.713,30.901 52.970,31.373 53.399,31.652 C53.978,32.038 54.342,32.703 54.342,33.411 L54.342,37.143 C54.342,38.323 53.399,39.266 52.219,39.266 C51.040,39.266 50.096,38.323 50.096,37.143 L50.096,34.376 C49.067,33.303 48.467,31.888 48.467,30.365 L48.467,22.278 C48.467,17.109 52.670,12.883 57.859,12.883 L59.596,12.883 C64.764,12.883 68.989,17.087 68.989,22.278 L68.989,30.365 C68.989,31.888 68.388,33.303 67.359,34.376 L67.359,40.103 C69.461,41.197 74.028,43.728 78.296,47.246 C79.711,48.404 80.504,50.099 80.504,51.922 L80.504,57.456 C80.504,58.636 79.561,59.580 78.381,59.580 ZM38.602,35.405 C41.111,36.692 47.244,40.039 52.970,44.758 C54.643,46.130 55.586,48.147 55.586,50.313 L55.586,57.477 C55.586,58.657 54.643,59.601 53.463,59.601 C52.284,59.601 51.340,58.657 51.383,57.499 L51.383,50.335 C51.383,49.455 50.997,48.619 50.311,48.061 C43.985,42.870 37.144,39.417 35.836,38.773 C34.935,38.323 34.378,37.422 34.378,36.435 L34.378,26.354 C34.378,25.646 34.721,24.981 35.321,24.595 C36.050,24.101 36.479,23.286 36.479,22.428 L36.479,11.961 C36.479,7.949 33.220,4.668 29.188,4.668 L26.937,4.668 C22.926,4.668 19.645,7.928 19.645,11.961 L19.645,22.428 C19.645,23.308 20.074,24.101 20.803,24.595 C21.382,24.981 21.747,25.646 21.747,26.354 L21.747,36.435 C21.747,37.422 21.189,38.323 20.289,38.752 C18.981,39.395 12.140,42.849 5.814,48.039 C5.128,48.597 4.742,49.434 4.742,50.313 L4.742,57.477 C4.742,58.657 3.798,59.601 2.619,59.601 C1.439,59.601 0.496,58.657 0.496,57.477 L0.496,50.313 C0.496,48.147 1.439,46.130 3.112,44.758 C8.838,40.039 14.971,36.692 17.480,35.405 L17.480,27.340 C16.150,26.053 15.378,24.294 15.378,22.407 L15.378,11.939 C15.378,5.590 20.546,0.399 26.915,0.399 L29.167,0.399 C35.514,0.399 40.704,5.568 40.704,11.939 L40.704,22.407 C40.704,24.294 39.932,26.053 38.602,27.340 L38.602,35.405 Z"/>
</svg>