<svg 
 xmlns="http://www.w3.org/2000/svg"
 xmlns:xlink="http://www.w3.org/1999/xlink"
 width="25px" height="25px" viewBox="0 0 25 25">
<path fill-rule="evenodd"  fill="rgb(159, 174, 188)"
 d="M21.337,3.663 C18.975,1.301 15.840,-0.000 12.500,-0.000 C9.160,-0.000 6.025,1.301 3.663,3.663 C1.301,6.025 -0.000,9.160 -0.000,12.500 C-0.000,15.840 1.301,18.975 3.663,21.337 C6.025,23.699 9.160,25.000 12.500,25.000 C14.534,25.000 16.547,24.503 18.335,23.555 C18.786,23.319 18.955,22.761 18.719,22.310 C18.484,21.859 17.925,21.690 17.474,21.926 C15.953,22.730 14.237,23.156 12.500,23.156 C6.624,23.156 1.844,18.376 1.844,12.500 C1.844,6.624 6.624,1.844 12.500,1.844 C18.376,1.844 23.156,6.624 23.156,12.500 C23.156,14.477 22.602,15.604 22.136,16.198 C21.639,16.839 20.973,17.203 20.307,17.203 C19.380,17.203 18.443,16.465 18.443,14.816 L18.443,7.638 C18.443,7.131 18.028,6.716 17.520,6.716 C17.013,6.716 16.598,7.131 16.598,7.638 L16.598,8.043 C15.451,6.890 13.868,6.178 12.116,6.178 C8.627,6.173 5.789,9.011 5.789,12.500 C5.789,15.989 8.627,18.827 12.116,18.827 C12.736,18.827 13.345,18.740 13.929,18.560 C14.416,18.417 14.693,17.899 14.549,17.413 C14.406,16.926 13.888,16.649 13.402,16.793 C12.987,16.916 12.551,16.983 12.116,16.983 C9.646,16.983 7.633,14.974 7.633,12.500 C7.633,10.031 9.641,8.017 12.116,8.017 C14.590,8.017 16.598,10.025 16.598,12.500 L16.598,14.816 C16.598,17.592 18.463,19.047 20.307,19.047 C21.542,19.047 22.741,18.422 23.591,17.331 C24.513,16.148 25.000,14.477 25.000,12.500 C25.000,9.160 23.699,6.025 21.337,3.663 Z"/>
</svg>