<svg 
 xmlns="http://www.w3.org/2000/svg"
 xmlns:xlink="http://www.w3.org/1999/xlink"
 width="19px" height="25px" viewBox="0 0 19 25">
<path fill-rule="evenodd"  fill="rgb(159, 174, 188)"
 d="M18.831,11.902 C18.826,11.939 18.806,12.049 18.767,12.238 C18.622,12.919 18.409,13.579 18.131,14.214 C17.108,16.756 14.853,20.660 9.922,24.843 C9.798,24.948 9.649,25.000 9.500,25.000 C9.351,25.000 9.202,24.948 9.078,24.843 C4.142,20.660 1.892,16.756 0.869,14.214 C0.591,13.579 0.377,12.914 0.233,12.238 C0.194,12.049 0.174,11.939 0.169,11.902 C0.055,11.284 -0.000,10.650 -0.000,10.021 C-0.000,4.497 4.261,-0.000 9.495,-0.000 C14.729,-0.000 18.990,4.497 19.000,10.021 C19.000,10.650 18.940,11.284 18.831,11.902 ZM9.495,1.410 C5.001,1.410 1.341,5.273 1.341,10.016 C1.341,10.566 1.390,11.111 1.490,11.651 C1.490,11.667 1.495,11.677 1.495,11.687 C1.500,11.714 1.510,11.792 1.539,11.913 C1.539,11.918 1.539,11.918 1.539,11.923 C1.669,12.510 1.852,13.087 2.091,13.632 C2.096,13.637 2.096,13.648 2.101,13.653 C3.029,15.975 5.065,19.518 9.495,23.380 C13.925,19.518 15.961,15.975 16.889,13.653 C16.894,13.648 16.894,13.637 16.899,13.632 C17.143,13.082 17.326,12.510 17.451,11.923 C17.451,11.918 17.451,11.918 17.451,11.913 C17.475,11.792 17.490,11.714 17.495,11.687 C17.495,11.677 17.500,11.667 17.500,11.656 C17.600,11.121 17.649,10.571 17.649,10.016 C17.649,5.273 13.989,1.410 9.495,1.410 ZM9.495,16.494 C6.173,16.494 3.466,13.637 3.466,10.131 C3.466,6.625 6.173,3.768 9.495,3.768 C12.817,3.768 15.524,6.625 15.524,10.131 C15.524,13.637 12.817,16.494 9.495,16.494 ZM9.495,5.183 C6.913,5.183 4.807,7.405 4.807,10.131 C4.807,12.856 6.908,15.078 9.495,15.078 C12.082,15.078 14.183,12.856 14.183,10.131 C14.183,7.405 12.077,5.183 9.495,5.183 Z"/>
</svg>