<svg 
 xmlns="http://www.w3.org/2000/svg"
 xmlns:xlink="http://www.w3.org/1999/xlink"
 width="15px" height="18px" viewBox="0 0 15 18">
<path fill-rule="evenodd"  fill="rgb(255, 255, 255)"
 d="M14.861,8.569 C14.857,8.596 14.841,8.675 14.810,8.811 C14.696,9.302 14.527,9.777 14.308,10.234 C13.500,12.064 11.720,14.875 7.827,17.887 C7.729,17.962 7.612,18.000 7.494,18.000 C7.376,18.000 7.259,17.962 7.161,17.887 C3.264,14.875 1.488,12.064 0.680,10.234 C0.461,9.777 0.292,9.298 0.178,8.811 C0.147,8.675 0.131,8.596 0.127,8.569 C0.037,8.124 -0.006,7.668 -0.006,7.215 C-0.006,3.237 3.358,-0.000 7.490,-0.000 C11.622,-0.000 14.986,3.237 14.994,7.215 C14.994,7.668 14.947,8.124 14.861,8.569 ZM7.490,1.015 C3.942,1.015 1.053,3.796 1.053,7.211 C1.053,7.607 1.092,8.000 1.170,8.388 C1.170,8.400 1.174,8.407 1.174,8.415 C1.178,8.434 1.186,8.490 1.209,8.577 C1.209,8.581 1.209,8.581 1.209,8.585 C1.311,9.007 1.456,9.422 1.645,9.815 C1.648,9.819 1.648,9.826 1.652,9.830 C2.386,11.502 3.993,14.053 7.490,16.834 C10.987,14.053 12.595,11.502 13.328,9.830 C13.332,9.826 13.332,9.819 13.336,9.815 C13.528,9.419 13.673,9.007 13.771,8.585 C13.771,8.581 13.771,8.581 13.771,8.577 C13.790,8.490 13.802,8.434 13.806,8.415 C13.806,8.407 13.810,8.400 13.810,8.392 C13.888,8.007 13.928,7.611 13.928,7.211 C13.928,3.796 11.038,1.015 7.490,1.015 ZM7.490,11.875 C4.867,11.875 2.731,9.819 2.731,7.294 C2.731,4.770 4.867,2.713 7.490,2.713 C10.113,2.713 12.250,4.770 12.250,7.294 C12.250,9.819 10.113,11.875 7.490,11.875 ZM7.490,3.732 C5.451,3.732 3.789,5.332 3.789,7.294 C3.789,9.257 5.448,10.857 7.490,10.857 C9.533,10.857 11.191,9.257 11.191,7.294 C11.191,5.332 9.529,3.732 7.490,3.732 Z"/>
</svg>