<svg 
 xmlns="http://www.w3.org/2000/svg"
 xmlns:xlink="http://www.w3.org/1999/xlink"
 width="71px" height="60px" viewBox="0 0 71 60" > 
<path fill-rule="evenodd"  fill="rgb(255, 255, 255)"
 d="M47.147,10.385 C50.039,10.385 52.354,8.077 52.354,5.193 C52.354,2.308 50.039,0.001 47.147,0.001 C44.254,0.001 41.940,2.308 41.940,5.193 C41.940,8.077 44.254,10.385 47.147,10.385 ZM55.825,31.153 C47.725,31.153 41.361,37.499 41.361,45.576 C41.361,53.652 47.725,59.998 55.825,59.998 C63.924,59.998 70.288,53.652 70.288,45.576 C70.288,37.499 63.924,31.153 55.825,31.153 ZM55.825,55.672 C50.329,55.672 45.700,51.056 45.700,45.576 C45.700,40.095 50.329,35.480 55.825,35.480 C61.321,35.480 65.949,40.095 65.949,45.576 C65.949,51.056 61.321,55.672 55.825,55.672 ZM43.675,25.384 L55.825,25.384 L55.825,20.192 L46.568,20.192 L41.072,10.673 C40.204,9.232 38.758,8.366 36.733,8.366 C35.287,8.366 34.130,8.943 33.262,9.808 L22.559,20.481 C21.691,21.346 21.112,22.500 21.112,23.942 C21.112,25.673 21.980,27.404 23.426,28.269 L33.262,34.038 L33.262,48.460 L38.469,48.460 L38.469,29.711 L32.105,24.807 L38.758,18.173 L43.675,25.384 ZM15.327,31.153 C7.227,31.153 0.863,37.499 0.863,45.576 C0.863,53.652 7.227,59.998 15.327,59.998 C23.426,59.998 29.790,53.652 29.790,45.576 C29.790,37.499 23.426,31.153 15.327,31.153 ZM15.327,55.672 C9.831,55.672 5.202,51.056 5.202,45.576 C5.202,40.095 9.831,35.480 15.327,35.480 C20.823,35.480 25.451,40.095 25.451,45.576 C25.451,51.056 20.823,55.672 15.327,55.672 Z"/>
</svg>