<svg 
 xmlns="http://www.w3.org/2000/svg"
 xmlns:xlink="http://www.w3.org/1999/xlink"
 width="16px" height="16px" viewBox="0 0 16 16">
<path fill-rule="evenodd"  fill="rgb(159, 174, 188)"
 d="M8.000,16.000 C3.589,16.000 -0.000,12.411 -0.000,8.000 C-0.000,3.589 3.589,-0.001 8.000,-0.001 C12.411,-0.001 16.000,3.589 16.000,8.000 C16.000,12.411 12.411,16.000 8.000,16.000 ZM8.000,1.702 C4.527,1.702 1.702,4.527 1.702,8.000 C1.702,11.473 4.527,14.298 8.000,14.298 C11.473,14.298 14.298,11.473 14.298,8.000 C14.298,4.527 11.473,1.702 8.000,1.702 ZM12.169,9.070 L7.915,9.070 C7.552,9.070 7.257,8.775 7.257,8.411 L7.257,3.430 C7.257,3.066 7.552,2.771 7.915,2.771 C8.279,2.771 8.574,3.066 8.574,3.430 L8.574,7.753 L12.169,7.753 C12.533,7.753 12.828,8.048 12.828,8.411 C12.828,8.775 12.533,9.070 12.169,9.070 Z"/>
</svg>