<svg 
 xmlns="http://www.w3.org/2000/svg"
 xmlns:xlink="http://www.w3.org/1999/xlink"
 width="46px" height="30px" viewBox="0 0 46 30">
<path fill-rule="evenodd"  fill="rgb(47, 57, 66)"
 d="M37.639,29.870 C34.713,29.870 31.996,28.377 30.428,25.710 C30.219,25.177 30.323,24.537 30.846,24.323 C31.368,24.003 31.996,24.217 32.309,24.643 C33.459,26.563 35.444,27.737 37.639,27.737 C41.088,27.737 43.910,24.857 43.910,21.336 C43.910,18.029 41.506,15.255 38.266,14.935 C37.744,14.829 37.221,14.402 37.326,13.762 C37.430,13.228 37.848,12.695 38.475,12.801 C42.760,13.335 46.000,16.962 46.000,21.336 C46.000,26.030 42.238,29.870 37.639,29.870 ZM35.549,5.334 L33.981,5.334 C34.086,6.081 33.981,6.827 33.563,7.467 L32.413,9.174 L35.444,14.082 C35.444,14.082 35.444,14.082 35.549,14.188 L39.625,20.803 C39.938,21.336 39.834,21.976 39.311,22.296 C39.102,22.296 38.893,22.403 38.684,22.403 C38.371,22.403 37.953,22.189 37.848,21.869 L34.190,16.002 C32.727,16.963 31.786,18.562 31.473,20.269 L34.504,20.269 C35.131,20.269 35.549,20.696 35.549,21.336 C35.549,21.976 35.131,22.403 34.504,22.403 L24.888,22.403 C24.575,23.256 23.843,24.003 23.007,24.323 L23.007,25.603 C23.007,26.243 22.589,26.670 21.962,26.670 C21.335,26.670 20.917,26.243 20.917,25.603 L20.917,24.323 C19.663,23.896 18.827,22.723 18.827,21.336 C18.827,19.949 19.663,18.776 20.917,18.349 L20.917,17.069 C20.917,16.428 21.335,16.002 21.962,16.002 C22.589,16.002 23.007,16.429 23.007,17.069 L23.007,18.349 C23.843,18.669 24.575,19.416 24.888,20.269 L29.383,20.269 C29.696,17.815 31.055,15.575 33.040,14.188 L31.055,10.988 L27.083,16.642 C26.874,16.963 26.561,17.069 26.247,17.069 C26.038,17.069 25.829,16.963 25.620,16.855 C25.202,16.535 25.097,15.789 25.411,15.362 L28.651,10.668 L14.751,10.668 L18.618,15.362 C19.036,15.789 18.931,16.535 18.513,16.855 C18.304,17.069 18.095,17.069 17.886,17.069 C17.572,17.069 17.259,16.963 17.050,16.642 L12.974,11.735 L9.420,21.656 C9.316,22.083 8.898,22.403 8.480,22.403 C8.375,22.403 8.271,22.403 8.166,22.296 C7.644,22.083 7.330,21.443 7.539,20.909 L9.629,15.042 C9.107,14.935 8.793,14.935 8.375,14.935 C4.926,14.935 2.104,17.815 2.104,21.336 C2.104,24.857 4.926,27.737 8.375,27.737 C11.824,27.737 14.646,24.857 14.646,21.336 C14.646,19.843 14.123,18.349 13.078,17.175 C12.660,16.749 12.765,16.109 13.183,15.682 C13.601,15.255 14.228,15.362 14.646,15.788 C16.005,17.389 16.736,19.309 16.736,21.443 C16.736,26.137 12.974,29.977 8.375,29.977 C3.776,29.977 0.014,26.137 0.014,21.443 C0.014,16.749 3.777,12.801 8.375,12.801 C9.002,12.801 9.630,12.908 10.256,13.015 L14.228,2.133 L13.601,2.133 C12.974,2.133 12.556,2.560 12.556,3.200 C12.556,3.840 12.138,4.267 11.511,4.267 C10.884,4.267 10.466,3.840 10.466,3.200 C10.466,1.386 11.824,-0.001 13.601,-0.001 L15.691,-0.001 C16.005,-0.001 16.318,0.213 16.527,0.426 C16.736,0.746 16.841,1.067 16.632,1.386 L14.019,8.535 L30.219,8.535 L31.891,6.187 C32.100,5.974 31.996,5.654 31.891,5.654 C31.891,5.547 31.682,5.334 31.368,5.334 C30.741,5.334 30.323,4.907 30.323,4.267 C30.323,3.627 30.741,3.200 31.368,3.200 L35.549,3.200 C36.176,3.200 36.594,3.627 36.594,4.267 C36.594,4.907 36.176,5.334 35.549,5.334 ZM21.962,20.269 C21.335,20.269 20.917,20.696 20.917,21.336 C20.917,21.976 21.335,22.403 21.962,22.403 C22.589,22.403 23.007,21.976 23.007,21.336 C23.007,20.696 22.589,20.269 21.962,20.269 Z"/>
</svg>