<svg 
 xmlns="http://www.w3.org/2000/svg"
 xmlns:xlink="http://www.w3.org/1999/xlink"
 width="46px" height="30px" viewBox="0 0 46 30">
<path fill-rule="evenodd"  fill="rgb(47, 57, 66)"
 d="M37.637,29.999 C33.037,29.999 29.273,26.156 29.273,21.458 C29.273,19.323 30.005,17.402 31.364,15.800 C31.782,15.373 32.409,15.266 32.827,15.694 C33.246,16.121 33.350,16.761 32.932,17.188 C31.887,18.362 31.364,19.857 31.364,21.352 C31.364,24.875 34.187,27.757 37.637,27.757 C41.087,27.757 43.909,24.875 43.909,21.352 C43.909,17.828 41.087,14.946 37.637,14.946 C37.218,14.946 36.905,14.946 36.382,15.053 L38.473,20.924 C38.682,21.458 38.368,22.099 37.846,22.312 C37.741,22.419 37.637,22.419 37.532,22.419 C37.114,22.419 36.696,22.099 36.591,21.672 L33.036,11.743 L28.959,16.654 C28.750,16.975 28.436,17.081 28.123,17.081 C27.914,17.081 27.705,17.081 27.496,16.868 C27.077,16.547 26.973,15.800 27.391,15.373 L31.259,10.676 L17.354,10.676 L20.595,15.373 C20.909,15.800 20.805,16.547 20.386,16.868 C20.177,16.975 19.968,17.081 19.759,17.081 C19.445,17.081 19.132,16.975 18.923,16.654 L14.950,10.996 L12.964,14.199 C14.950,15.586 16.309,17.828 16.623,20.284 L21.118,20.284 C21.432,19.430 22.164,18.683 23.000,18.362 L23.000,17.081 C23.000,16.441 23.418,16.013 24.045,16.013 C24.673,16.013 25.091,16.440 25.091,17.081 L25.091,18.362 C26.345,18.789 27.182,19.964 27.182,21.352 C27.182,22.739 26.345,23.914 25.091,24.341 L25.091,25.622 C25.091,26.262 24.673,26.690 24.045,26.690 C23.418,26.690 23.000,26.262 23.000,25.622 L23.000,24.341 C22.164,24.021 21.432,23.274 21.118,22.419 L11.500,22.419 C10.873,22.419 10.454,21.992 10.454,21.352 C10.454,20.711 10.872,20.284 11.500,20.284 L14.532,20.284 C14.218,18.576 13.277,16.975 11.813,16.014 L8.154,21.885 C8.050,22.206 7.632,22.419 7.318,22.419 C7.109,22.419 6.900,22.312 6.691,22.312 C6.168,21.992 6.063,21.352 6.377,20.818 L10.454,14.199 C10.559,14.092 10.559,14.092 10.559,14.092 L13.591,9.181 L12.441,7.473 C12.023,6.832 11.918,6.085 12.023,5.338 L10.454,5.338 C9.827,5.338 9.409,4.910 9.409,4.270 C9.409,3.629 9.827,3.203 10.454,3.203 L14.636,3.203 C15.263,3.203 15.682,3.629 15.682,4.270 C15.682,4.910 15.263,5.338 14.636,5.338 C14.322,5.338 14.113,5.551 14.113,5.658 C14.009,5.658 13.904,5.978 14.113,6.191 L15.786,8.541 L31.991,8.541 L29.377,1.387 C29.168,1.067 29.273,0.747 29.482,0.427 C29.691,0.213 30.005,-0.001 30.318,-0.001 L32.409,-0.001 C34.186,-0.001 35.545,1.387 35.545,3.202 C35.545,3.843 35.127,4.270 34.500,4.270 C33.873,4.270 33.455,3.843 33.455,3.202 C33.455,2.562 33.036,2.135 32.409,2.135 L31.782,2.135 L35.755,13.024 C36.382,12.918 37.009,12.811 37.636,12.811 C42.237,12.811 46.000,16.761 46.000,21.458 C46.000,26.156 42.237,29.999 37.637,29.999 ZM24.045,22.419 C24.673,22.419 25.091,21.992 25.091,21.352 C25.091,20.711 24.673,20.284 24.045,20.284 C23.418,20.284 23.000,20.711 23.000,21.352 C23.000,21.992 23.418,22.419 24.045,22.419 ZM7.736,14.946 C4.495,15.266 2.090,18.042 2.090,21.352 C2.090,24.875 4.913,27.757 8.363,27.757 C10.559,27.757 12.545,26.583 13.695,24.661 C14.009,24.234 14.636,24.021 15.159,24.341 C15.682,24.555 15.786,25.195 15.577,25.729 C14.009,28.398 11.291,29.892 8.363,29.892 C3.763,29.892 -0.000,26.049 -0.000,21.352 C-0.000,16.974 3.241,13.345 7.527,12.811 C8.154,12.704 8.572,13.238 8.677,13.772 C8.782,14.412 8.259,14.840 7.736,14.946 Z"/>
</svg>