<svg 
 xmlns="http://www.w3.org/2000/svg"
 xmlns:xlink="http://www.w3.org/1999/xlink"
 width="25px" height="25px" viewBox="0 0 25 25">
<path fill-rule="evenodd"  fill="rgb(159, 174, 188)"
 d="M24.408,11.841 C24.365,11.846 24.328,11.851 24.286,11.851 C23.943,11.851 23.641,11.608 23.583,11.260 C23.166,8.801 22.003,6.559 20.217,4.775 C18.431,2.997 16.185,1.831 13.723,1.414 C13.332,1.346 13.073,0.982 13.137,0.591 C13.205,0.206 13.570,-0.058 13.956,0.011 C16.714,0.480 19.224,1.778 21.221,3.773 C23.219,5.767 24.519,8.274 24.989,11.028 C25.058,11.413 24.793,11.783 24.408,11.841 ZM13.760,4.543 C15.435,4.828 16.962,5.620 18.172,6.828 C19.382,8.036 20.175,9.561 20.460,11.234 C20.524,11.624 20.265,11.993 19.874,12.057 C19.832,12.062 19.795,12.067 19.752,12.067 C19.409,12.067 19.108,11.825 19.050,11.476 C18.812,10.094 18.162,8.838 17.158,7.836 C16.154,6.833 14.896,6.179 13.512,5.947 C13.121,5.883 12.867,5.509 12.936,5.124 C13.004,4.738 13.369,4.480 13.760,4.543 ZM9.025,9.245 C8.634,9.640 8.233,10.052 7.799,10.448 C8.122,11.160 8.566,11.862 9.226,12.695 C10.590,14.368 12.011,15.661 13.575,16.653 C13.728,16.747 13.908,16.837 14.098,16.932 C14.230,17.001 14.368,17.069 14.505,17.143 L16.175,15.481 C16.709,14.948 17.332,14.669 17.982,14.669 C18.637,14.669 19.256,14.954 19.768,15.486 L22.669,18.394 C23.203,18.922 23.483,19.549 23.483,20.204 C23.483,20.852 23.208,21.486 22.685,22.029 C22.458,22.267 22.225,22.493 21.998,22.710 C21.665,23.032 21.348,23.332 21.073,23.665 C21.068,23.676 21.057,23.681 21.052,23.691 C20.249,24.562 19.224,25.000 18.003,25.000 C17.898,25.000 17.781,24.995 17.670,24.989 C15.858,24.873 14.236,24.193 13.020,23.617 C9.839,22.082 7.054,19.903 4.740,17.143 C2.832,14.853 1.554,12.716 0.697,10.411 C0.349,9.471 -0.106,8.036 0.021,6.495 C0.106,5.540 0.491,4.717 1.168,4.042 L2.964,2.232 C2.970,2.227 2.970,2.227 2.975,2.222 C3.503,1.715 4.127,1.446 4.772,1.446 C5.416,1.446 6.029,1.715 6.542,2.222 C6.885,2.538 7.218,2.876 7.535,3.203 C7.694,3.372 7.863,3.541 8.027,3.704 L9.469,5.145 C10.579,6.253 10.579,7.688 9.469,8.796 C9.321,8.944 9.173,9.097 9.025,9.245 ZM8.465,6.153 L7.023,4.712 C6.854,4.538 6.684,4.369 6.521,4.200 C6.198,3.868 5.892,3.557 5.570,3.256 C5.564,3.251 5.559,3.245 5.554,3.240 C5.385,3.071 5.115,2.871 4.782,2.871 C4.513,2.871 4.238,3.003 3.979,3.245 L2.177,5.044 C1.739,5.482 1.501,5.994 1.448,6.612 C1.369,7.577 1.548,8.601 2.040,9.915 C2.838,12.067 4.042,14.072 5.844,16.241 C8.027,18.842 10.653,20.895 13.644,22.341 C14.738,22.863 16.196,23.475 17.765,23.575 C17.845,23.580 17.929,23.580 18.009,23.580 C18.833,23.580 19.462,23.311 19.995,22.741 C20.323,22.356 20.672,22.013 21.015,21.686 C21.242,21.465 21.454,21.264 21.660,21.042 C22.199,20.483 22.199,19.929 21.655,19.391 L18.743,16.484 C18.738,16.478 18.738,16.478 18.733,16.473 C18.569,16.294 18.299,16.088 17.972,16.088 C17.639,16.088 17.353,16.304 17.174,16.484 L15.366,18.288 C15.277,18.378 15.002,18.652 14.563,18.652 C14.389,18.652 14.220,18.610 14.040,18.520 C14.019,18.510 13.998,18.494 13.977,18.484 C13.823,18.388 13.644,18.299 13.454,18.204 C13.242,18.098 13.020,17.988 12.804,17.850 C11.107,16.779 9.570,15.381 8.111,13.587 L8.106,13.582 C7.303,12.563 6.774,11.709 6.399,10.801 C6.394,10.785 6.389,10.770 6.383,10.754 C6.288,10.453 6.204,10.010 6.658,9.556 C6.663,9.545 6.674,9.540 6.684,9.529 C7.144,9.118 7.567,8.696 8.011,8.242 C8.164,8.094 8.312,7.941 8.465,7.788 C9.025,7.229 9.025,6.712 8.465,6.153 Z"/>
</svg>